<!-- <?xml version="1.0" encoding="UTF-8"?><svg id="Layer_2" xmlns="http://www.w3.org/2000/svg" viewBox="0 0 610.45 153.43"><defs><style>.cls-1{fill:#eab54e;}.cls-2{fill:#fff;}.cls-3{fill:#ba18dd;}.cls-4{fill:#20aaa1;}</style></defs><g id="Layer_1-2"><g><path class="cls-2" d="M276.81,118.97h-21.03l-35.17-53.25v53.25h-21.03V32.64h21.03l35.17,53.5V32.64h21.03V118.97Z"/><path class="cls-2" d="M356.38,89.71h-47.59c.33,4.26,1.7,7.52,4.12,9.78,2.42,2.26,5.39,3.38,8.92,3.38,5.25,0,8.89-2.21,10.94-6.64h22.38c-1.15,4.51-3.22,8.57-6.21,12.18-2.99,3.61-6.74,6.44-11.25,8.49-4.51,2.05-9.55,3.07-15.13,3.07-6.72,0-12.71-1.43-17.95-4.3-5.25-2.87-9.35-6.97-12.3-12.3-2.95-5.33-4.43-11.56-4.43-18.69s1.46-13.36,4.37-18.69c2.91-5.33,6.99-9.43,12.24-12.3,5.25-2.87,11.27-4.3,18.08-4.3s12.54,1.39,17.71,4.18c5.17,2.79,9.2,6.76,12.11,11.93,2.91,5.17,4.37,11.19,4.37,18.08,0,1.97-.12,4.02-.37,6.15Zm-21.15-11.68c0-3.61-1.23-6.48-3.69-8.61-2.46-2.13-5.53-3.2-9.22-3.2s-6.5,1.03-8.92,3.08c-2.42,2.05-3.92,4.96-4.49,8.73h26.32Z"/><path class="cls-2" d="M397.33,52.32c3.69-1.97,7.91-2.95,12.67-2.95,5.66,0,10.78,1.44,15.37,4.3,4.59,2.87,8.22,6.97,10.88,12.3,2.66,5.33,4,11.52,4,18.57s-1.33,13.26-4,18.63c-2.67,5.37-6.29,9.51-10.88,12.42-4.59,2.91-9.71,4.37-15.37,4.37-4.84,0-9.06-.96-12.67-2.89-3.61-1.93-6.44-4.49-8.49-7.69v9.59h-21.03V27.97h21.03V60.07c1.97-3.2,4.8-5.78,8.49-7.75Zm17.16,19.86c-2.91-2.99-6.5-4.49-10.76-4.49s-7.73,1.52-10.64,4.55c-2.91,3.03-4.37,7.17-4.37,12.42s1.45,9.39,4.37,12.42c2.91,3.03,6.46,4.55,10.64,4.55s7.75-1.54,10.7-4.61c2.95-3.07,4.43-7.23,4.43-12.48s-1.46-9.37-4.37-12.36Z"/><path class="cls-2" d="M451.13,65.97c2.66-5.33,6.29-9.43,10.88-12.3,4.59-2.87,9.72-4.3,15.37-4.3,4.84,0,9.08,.98,12.73,2.95,3.65,1.97,6.46,4.55,8.42,7.75v-9.72h21.03V118.97h-21.03v-9.72c-2.05,3.2-4.9,5.78-8.55,7.75-3.65,1.97-7.89,2.95-12.73,2.95-5.58,0-10.66-1.45-15.25-4.37-4.59-2.91-8.22-7.05-10.88-12.42-2.66-5.37-4-11.58-4-18.63s1.33-13.24,4-18.57Zm43.04,6.27c-2.91-3.03-6.46-4.55-10.64-4.55s-7.73,1.5-10.64,4.49c-2.91,2.99-4.37,7.11-4.37,12.36s1.45,9.41,4.37,12.48c2.91,3.08,6.46,4.61,10.64,4.61s7.73-1.52,10.64-4.55c2.91-3.03,4.37-7.17,4.37-12.42s-1.46-9.39-4.37-12.42Z"/><path class="cls-2" d="M565.07,52.87c3.69-2.17,7.79-3.26,12.3-3.26v22.26h-5.78c-5.25,0-9.18,1.13-11.81,3.38-2.63,2.26-3.94,6.21-3.94,11.87v31.85h-21.03V50.35h21.03v11.44c2.46-3.77,5.53-6.74,9.22-8.92Z"/><path class="cls-2" d="M588.99,39.96c-2.34-2.17-3.51-4.86-3.51-8.05s1.17-6,3.51-8.18c2.34-2.17,5.35-3.26,9.04-3.26s6.58,1.09,8.92,3.26c2.34,2.17,3.5,4.9,3.5,8.18s-1.17,5.88-3.5,8.05c-2.34,2.17-5.31,3.26-8.92,3.26s-6.7-1.09-9.04-3.26Zm19.49,10.39V118.97h-21.03V50.35h21.03Z"/></g><g><rect class="cls-4" x="125.38" y="46.86" width="42.4" height="13.88" rx="6.94" ry="6.94"/><rect class="cls-4" x="125.9" y="84.88" width="34.01" height="13.88" rx="6.94" ry="6.94"/><rect class="cls-4" x="22.06" y="48.54" width="91.2" height="13.88" rx="6.94" ry="6.94"/><rect class="cls-4" x="15.41" y="30.77" width="66.37" height="13.88" rx="6.94" ry="6.94"/><rect class="cls-4" x="0" y="66.29" width="31.25" height="13.88" rx="6.94" ry="6.94"/><rect class="cls-4" x="56.4" y="12.95" width="39.03" height="13.88" rx="6.94" ry="6.94"/><rect class="cls-4" x="73.4" y="66.24" width="77.33" height="13.88" rx="6.94" ry="6.94"/><path class="cls-3" d="M109.08,137.03c12.4-2.85,20.87-7.81,26.67-15.62,3.24-4.36,5.36-9.52,6.82-16.62h-16.34c-1.35,5.87-4.94,10.35-10.69,13.35-6.76,3.52-14.2,4.32-21.39,5.09-.56,.06-1.12,.12-1.68,.18-2.11,.23-2.49-1.41-2.67-2.19-1.77-7.61-6.13-13.36-12.96-17.09-.54-.29-1.27-.78-1.43-1.6-.15-.8,.32-1.49,.75-2,3.41-4.09,5.37-8.98,6.8-13.41h-16.95c-2.17,4.57-5.78,7.88-11.04,10.12-7.67,3.26-15.68,3.68-23.82,1.24-6.13-1.83-9.82-5.64-10.98-11.32l-16.03-.03c2.02,14.56,10.6,23.76,25.5,27.35,7.12,1.71,14.55,1.6,21.73,1.5l1.12-.02c.76-.01,1.51-.03,2.27-.05,1.11-.03,2.23-.06,3.36-.06,2.37,0,4.77,.13,7.16,.66,6.09,1.35,9.24,5.18,9.36,11.4,.1,5.24-1.79,10.05-5.78,14.72-3.17,3.71-7.04,6.64-10.79,9.47-.58,.44-1.16,.88-1.75,1.33l24.17-.03c3.43-3.93,5.83-7.78,7.35-11.74,.75-1.95,2.07-2.29,3.38-2.37,5.33-.31,11.62-.83,17.85-2.26Z"/><path class="cls-1" d="M125.16,39.77c11.09,.05,20.1-8.67,20.19-19.54C145.44,9.14,136.59,.07,125.62,0c-11.08-.07-20.2,8.86-20.21,19.77-.01,10.98,8.84,19.95,19.75,20Z"/></g></g></svg> -->
<svg xmlns="http://www.w3.org/2000/svg" xmlns:xlink="http://www.w3.org/1999/xlink" id="Layer_1" data-name="Layer 1" viewBox="0 0 238 29.31">
  <defs>
    <style>
      .cls-1 {
        mask: url(#mask);
      }

      .cls-2, .cls-3, .cls-4, .cls-5, .cls-6, .cls-7, .cls-8 {
        stroke-width: 0px;
      }

      .cls-3 {
        fill: #964b9d;
      }

      .cls-4 {
        fill: #111216;
      }

      .cls-5 {
        fill: #23385d;
      }

      .cls-6 {
        fill: #1caaa1;
      }

      .cls-7 {
        fill: #fff;
      }

      .cls-8 {
        fill: #eab54c;
      }
    </style>
    <mask id="mask" x="0" y="2.69" width="96.97" height="26.62" maskUnits="userSpaceOnUse">
      <g id="mask0_6928_10775" data-name="mask0 6928 10775">
        <path class="cls-7" d="M96.97,2.69H0v26.62h96.97V2.69Z"/>
      </g>
    </mask>
  </defs>
  <g class="cls-1">
    <g>
      <path class="cls-5" d="M.62,14.39c-.53.39-.75,1.06-.55,1.68l2.7,8.28c.21.64.8,1.07,1.48,1.07h2.29l-1.67-5.13c-.78-2.4.06-5.01,2.1-6.5l6.4-4.67c-.85-.52-1.8-.77-2.75-.77-1.1,0-2.19.34-3.13,1.02L.62,14.4h0Z"/>
      <path class="cls-5" d="M18.39,7.96l-6.82-4.94c-.56-.41-1.32-.41-1.89,0l-7.01,5.1c-.53.39-.75,1.07-.55,1.69l.72,2.2,4.35-3.17c1.02-.75,2.23-1.12,3.43-1.12s2.39.37,3.42,1.11l6.41,4.64c.49-2.08-.3-4.25-2.06-5.51h0Z"/>
      <path class="cls-5" d="M23.09,17.88l2.6-8.03c.21-.66-.02-1.36-.57-1.77l-6.99-5.09c-.55-.4-1.28-.4-1.84,0l-1.85,1.34,4.38,3.18c2.03,1.48,2.88,4.08,2.1,6.47l-2.45,7.55c2.12-.17,3.95-1.6,4.61-3.65h0Z"/>
    </g>
  </g>
  <path class="cls-5" d="M18.14,22.18h-7.91c.82,1.97,2.74,3.26,4.9,3.26h8.47c.67,0,1.26-.43,1.46-1.06l2.67-8.17c.23-.7-.02-1.45-.61-1.89l-1.77-1.29-1.67,5.12c-.79,2.41-3.01,4.02-5.54,4.02Z"/>
  <path class="cls-5" d="M9.51,21.99l-2.45-7.47c-1.61,1.39-2.25,3.62-1.58,5.67l2.63,8.03c.21.65.82,1.09,1.5,1.09h8.63c.69,0,1.3-.45,1.51-1.11l.7-2.15h-5.33s0,0,0,0c-2.56,0-4.81-1.63-5.61-4.06h0Z"/>
  <path class="cls-5" d="M45.66,13.2c-.72-.37-1.84-.84-3.36-.84-2.39,0-3.78,1.68-3.78,3.64s1.35,3.64,3.64,3.64c1.62,0,2.83-.46,3.59-.84v2.97c-.77.4-2.21.81-3.86.81-3.79,0-6.59-2.88-6.59-6.57s2.79-6.57,6.73-6.57c1.68,0,2.87.44,3.64.84v2.93h0Z"/>
  <path class="cls-5" d="M54.75,12.38v7.24h1c2.57,0,3.93-1.65,3.93-3.62s-1.37-3.62-3.96-3.62h-.99,0Zm-3.22,9.95v-12.65h4.23c4.43,0,7.17,2.67,7.17,6.33s-2.74,6.33-7.15,6.33h-4.25Z"/>
  <path class="cls-5" d="M90.28,19.63c2.06,0,3.44-1.67,3.44-3.64s-1.39-3.64-3.44-3.64-3.46,1.68-3.46,3.64,1.41,3.64,3.46,3.64Zm0-10.21c3.9,0,6.69,2.93,6.69,6.57s-2.77,6.57-6.69,6.57-6.69-2.9-6.69-6.57,2.79-6.57,6.69-6.57Z"/>
  <path class="cls-5" d="M73.36,9.5h-.16l-6.29,12.82h3.36s.81-1.78,1.48-3.36c.42-.98.91-2.2,1.22-2.97.14-.35.25-.65.31-.79.25.77.76,2.02,1.19,3.02h-1.2c-.27.66-.89,2.14-.9,2.16h3.02l.89,1.93h3.36l-6.29-12.82h0Z"/>
  <path class="cls-4" d="M176.79,22.83h-3.86l-6.45-9.77v9.77h-3.86V6.99h3.86l6.45,9.82V6.99h3.86v15.84Z"/>
  <path class="cls-4" d="M191.39,17.46h-8.73c.06.78.31,1.38.76,1.79.44.41.99.62,1.64.62.96,0,1.63-.41,2.01-1.22h4.11c-.21.83-.59,1.57-1.14,2.23-.55.66-1.24,1.18-2.06,1.56-.83.38-1.75.56-2.78.56-1.23,0-2.33-.26-3.29-.79-.96-.53-1.72-1.28-2.26-2.26-.54-.98-.81-2.12-.81-3.43s.27-2.45.8-3.43c.53-.98,1.28-1.73,2.25-2.26.96-.53,2.07-.79,3.32-.79s2.3.26,3.25.77c.95.51,1.69,1.24,2.22,2.19.53.95.8,2.05.8,3.32,0,.36-.02.74-.07,1.13h0Zm-3.88-2.14c0-.66-.23-1.19-.68-1.58-.45-.39-1.01-.59-1.69-.59s-1.19.19-1.64.57-.72.91-.82,1.6h4.83Z"/>
  <path class="cls-4" d="M198.9,10.6c.68-.36,1.45-.54,2.32-.54,1.04,0,1.98.26,2.82.79.84.53,1.51,1.28,2,2.26.49.98.73,2.11.73,3.41s-.24,2.43-.73,3.42c-.49.99-1.15,1.74-2,2.28-.84.53-1.78.8-2.82.8-.89,0-1.66-.18-2.32-.53-.66-.35-1.18-.82-1.56-1.41v1.76h-3.86V6.13h3.86v5.89c.36-.59.88-1.06,1.56-1.42Zm3.15,3.64c-.53-.55-1.19-.82-1.97-.82s-1.42.28-1.95.83c-.53.56-.8,1.32-.8,2.28s.27,1.72.8,2.28c.53.56,1.18.83,1.95.83s1.42-.28,1.96-.85c.54-.56.81-1.33.81-2.29s-.27-1.72-.8-2.27Z"/>
  <path class="cls-4" d="M208.77,13.1c.49-.98,1.15-1.73,2-2.26.84-.53,1.78-.79,2.82-.79.89,0,1.67.18,2.34.54.67.36,1.18.83,1.54,1.42v-1.78h3.86v12.59h-3.86v-1.78c-.38.59-.9,1.06-1.57,1.42-.67.36-1.45.54-2.34.54-1.02,0-1.96-.27-2.8-.8-.84-.53-1.51-1.29-2-2.28-.49-.99-.73-2.12-.73-3.42s.24-2.43.73-3.41h0Zm7.9,1.15c-.53-.56-1.18-.83-1.95-.83s-1.42.28-1.95.82c-.53.55-.8,1.3-.8,2.27s.27,1.73.8,2.29c.53.57,1.19.85,1.95.85s1.42-.28,1.95-.83c.53-.56.8-1.32.8-2.28s-.27-1.72-.8-2.28Z"/>
  <path class="cls-4" d="M229.67,10.7c.68-.4,1.43-.6,2.26-.6v4.08h-1.06c-.96,0-1.68.21-2.17.62-.48.41-.72,1.14-.72,2.18v5.84h-3.86v-12.59h3.86v2.1c.45-.69,1.01-1.24,1.69-1.64h0Z"/>
  <path class="cls-4" d="M234.06,8.33c-.43-.4-.64-.89-.64-1.48s.21-1.1.64-1.5c.43-.4.98-.6,1.66-.6s1.21.2,1.64.6c.43.4.64.9.64,1.5s-.22,1.08-.64,1.48c-.43.4-.97.6-1.64.6s-1.23-.2-1.66-.6Zm3.58,1.91v12.59h-3.86v-12.59h3.86Z"/>
  <path class="cls-6" d="M155.51,9.6h-5.23c-.7,0-1.27.57-1.27,1.27s.57,1.27,1.27,1.27h5.23c.7,0,1.27-.57,1.27-1.27s-.57-1.27-1.27-1.27Z"/>
  <path class="cls-6" d="M154.07,16.57h-3.69c-.7,0-1.27.57-1.27,1.27s.57,1.27,1.27,1.27h3.69c.7,0,1.27-.57,1.27-1.27s-.57-1.27-1.27-1.27Z"/>
  <path class="cls-6" d="M145.51,9.9h-14.19c-.7,0-1.27.57-1.27,1.27s.57,1.27,1.27,1.27h14.19c.7,0,1.27-.57,1.27-1.27s-.57-1.27-1.27-1.27Z"/>
  <path class="cls-6" d="M139.73,6.65h-9.63c-.7,0-1.27.57-1.27,1.27s.57,1.27,1.27,1.27h9.63c.7,0,1.27-.57,1.27-1.27s-.57-1.27-1.27-1.27Z"/>
  <path class="cls-6" d="M130.46,13.16h-3.19c-.7,0-1.27.57-1.27,1.27s.57,1.27,1.27,1.27h3.19c.7,0,1.27-.57,1.27-1.27s-.57-1.27-1.27-1.27Z"/>
  <path class="cls-6" d="M142.24,3.38h-4.61c-.7,0-1.27.57-1.27,1.27s.57,1.27,1.27,1.27h4.61c.7,0,1.27-.57,1.27-1.27s-.57-1.27-1.27-1.27Z"/>
  <path class="cls-6" d="M152.38,13.15h-11.64c-.7,0-1.27.57-1.27,1.27s.57,1.27,1.27,1.27h11.64c.7,0,1.27-.57,1.27-1.27s-.57-1.27-1.27-1.27Z"/>
  <path class="cls-3" d="M146.01,26.14c2.27-.52,3.83-1.43,4.89-2.87.59-.8.98-1.75,1.25-3.05h-3c-.25,1.08-.91,1.9-1.96,2.45-1.24.65-2.61.79-3.93.93-.1.01-.21.02-.31.03-.39.04-.46-.26-.49-.4-.32-1.4-1.12-2.45-2.38-3.14-.1-.05-.23-.14-.26-.29-.03-.15.06-.27.14-.37.62-.75.99-1.65,1.25-2.46h-3.11c-.4.84-1.06,1.45-2.02,1.86-1.41.6-2.88.68-4.37.23-1.12-.34-1.8-1.03-2.01-2.08h-2.94c.37,2.67,1.94,4.35,4.68,5.01,1.31.31,2.67.29,3.99.28h.21c.14,0,.28,0,.42-.01.2,0,.41-.01.62-.01.43,0,.88.02,1.31.12,1.12.25,1.7.95,1.72,2.09.02.96-.33,1.84-1.06,2.7-.58.68-1.29,1.22-1.98,1.74-.11.08-.21.16-.32.24h4.43c.63-.73,1.07-1.43,1.35-2.16.14-.36.38-.42.62-.43.98-.06,2.13-.15,3.27-.41h0Z"/>
  <path class="cls-8" d="M148.96,8.3c2.03,0,3.69-1.59,3.7-3.59.02-2.03-1.61-3.7-3.62-3.71-2.03-.01-3.71,1.63-3.71,3.63,0,2.01,1.62,3.66,3.62,3.67Z"/>
  <path class="cls-2" d="M111.87,0h-1.09v24h1.09V0Z"/>
</svg>
