<?xml version="1.0" encoding="UTF-8"?><svg id="Layer_2" xmlns="http://www.w3.org/2000/svg" viewBox="0 0 610.45 153.43"><defs><style>.cls-1{fill:#eab54e;}.cls-2{fill:#fff;}.cls-3{fill:#ba18dd;}.cls-4{fill:#20aaa1;}</style></defs><g id="Layer_1-2"><g><path class="cls-2" d="M276.81,118.97h-21.03l-35.17-53.25v53.25h-21.03V32.64h21.03l35.17,53.5V32.64h21.03V118.97Z"/><path class="cls-2" d="M356.38,89.71h-47.59c.33,4.26,1.7,7.52,4.12,9.78,2.42,2.26,5.39,3.38,8.92,3.38,5.25,0,8.89-2.21,10.94-6.64h22.38c-1.15,4.51-3.22,8.57-6.21,12.18-2.99,3.61-6.74,6.44-11.25,8.49-4.51,2.05-9.55,3.07-15.13,3.07-6.72,0-12.71-1.43-17.95-4.3-5.25-2.87-9.35-6.97-12.3-12.3-2.95-5.33-4.43-11.56-4.43-18.69s1.46-13.36,4.37-18.69c2.91-5.33,6.99-9.43,12.24-12.3,5.25-2.87,11.27-4.3,18.08-4.3s12.54,1.39,17.71,4.18c5.17,2.79,9.2,6.76,12.11,11.93,2.91,5.17,4.37,11.19,4.37,18.08,0,1.97-.12,4.02-.37,6.15Zm-21.15-11.68c0-3.61-1.23-6.48-3.69-8.61-2.46-2.13-5.53-3.2-9.22-3.2s-6.5,1.03-8.92,3.08c-2.42,2.05-3.92,4.96-4.49,8.73h26.32Z"/><path class="cls-2" d="M397.33,52.32c3.69-1.97,7.91-2.95,12.67-2.95,5.66,0,10.78,1.44,15.37,4.3,4.59,2.87,8.22,6.97,10.88,12.3,2.66,5.33,4,11.52,4,18.57s-1.33,13.26-4,18.63c-2.67,5.37-6.29,9.51-10.88,12.42-4.59,2.91-9.71,4.37-15.37,4.37-4.84,0-9.06-.96-12.67-2.89-3.61-1.93-6.44-4.49-8.49-7.69v9.59h-21.03V27.97h21.03V60.07c1.97-3.2,4.8-5.78,8.49-7.75Zm17.16,19.86c-2.91-2.99-6.5-4.49-10.76-4.49s-7.73,1.52-10.64,4.55c-2.91,3.03-4.37,7.17-4.37,12.42s1.45,9.39,4.37,12.42c2.91,3.03,6.46,4.55,10.64,4.55s7.75-1.54,10.7-4.61c2.95-3.07,4.43-7.23,4.43-12.48s-1.46-9.37-4.37-12.36Z"/><path class="cls-2" d="M451.13,65.97c2.66-5.33,6.29-9.43,10.88-12.3,4.59-2.87,9.72-4.3,15.37-4.3,4.84,0,9.08,.98,12.73,2.95,3.65,1.97,6.46,4.55,8.42,7.75v-9.72h21.03V118.97h-21.03v-9.72c-2.05,3.2-4.9,5.78-8.55,7.75-3.65,1.97-7.89,2.95-12.73,2.95-5.58,0-10.66-1.45-15.25-4.37-4.59-2.91-8.22-7.05-10.88-12.42-2.66-5.37-4-11.58-4-18.63s1.33-13.24,4-18.57Zm43.04,6.27c-2.91-3.03-6.46-4.55-10.64-4.55s-7.73,1.5-10.64,4.49c-2.91,2.99-4.37,7.11-4.37,12.36s1.45,9.41,4.37,12.48c2.91,3.08,6.46,4.61,10.64,4.61s7.73-1.52,10.64-4.55c2.91-3.03,4.37-7.17,4.37-12.42s-1.46-9.39-4.37-12.42Z"/><path class="cls-2" d="M565.07,52.87c3.69-2.17,7.79-3.26,12.3-3.26v22.26h-5.78c-5.25,0-9.18,1.13-11.81,3.38-2.63,2.26-3.94,6.21-3.94,11.87v31.85h-21.03V50.35h21.03v11.44c2.46-3.77,5.53-6.74,9.22-8.92Z"/><path class="cls-2" d="M588.99,39.96c-2.34-2.17-3.51-4.86-3.51-8.05s1.17-6,3.51-8.18c2.34-2.17,5.35-3.26,9.04-3.26s6.58,1.09,8.92,3.26c2.34,2.17,3.5,4.9,3.5,8.18s-1.17,5.88-3.5,8.05c-2.34,2.17-5.31,3.26-8.92,3.26s-6.7-1.09-9.04-3.26Zm19.49,10.39V118.97h-21.03V50.35h21.03Z"/></g><g><rect class="cls-4" x="125.38" y="46.86" width="42.4" height="13.88" rx="6.94" ry="6.94"/><rect class="cls-4" x="125.9" y="84.88" width="34.01" height="13.88" rx="6.94" ry="6.94"/><rect class="cls-4" x="22.06" y="48.54" width="91.2" height="13.88" rx="6.94" ry="6.94"/><rect class="cls-4" x="15.41" y="30.77" width="66.37" height="13.88" rx="6.94" ry="6.94"/><rect class="cls-4" x="0" y="66.29" width="31.25" height="13.88" rx="6.94" ry="6.94"/><rect class="cls-4" x="56.4" y="12.95" width="39.03" height="13.88" rx="6.94" ry="6.94"/><rect class="cls-4" x="73.4" y="66.24" width="77.33" height="13.88" rx="6.94" ry="6.94"/><path class="cls-3" d="M109.08,137.03c12.4-2.85,20.87-7.81,26.67-15.62,3.24-4.36,5.36-9.52,6.82-16.62h-16.34c-1.35,5.87-4.94,10.35-10.69,13.35-6.76,3.52-14.2,4.32-21.39,5.09-.56,.06-1.12,.12-1.68,.18-2.11,.23-2.49-1.41-2.67-2.19-1.77-7.61-6.13-13.36-12.96-17.09-.54-.29-1.27-.78-1.43-1.6-.15-.8,.32-1.49,.75-2,3.41-4.09,5.37-8.98,6.8-13.41h-16.95c-2.17,4.57-5.78,7.88-11.04,10.12-7.67,3.26-15.68,3.68-23.82,1.24-6.13-1.83-9.82-5.64-10.98-11.32l-16.03-.03c2.02,14.56,10.6,23.76,25.5,27.35,7.12,1.71,14.55,1.6,21.73,1.5l1.12-.02c.76-.01,1.51-.03,2.27-.05,1.11-.03,2.23-.06,3.36-.06,2.37,0,4.77,.13,7.16,.66,6.09,1.35,9.24,5.18,9.36,11.4,.1,5.24-1.79,10.05-5.78,14.72-3.17,3.71-7.04,6.64-10.79,9.47-.58,.44-1.16,.88-1.75,1.33l24.17-.03c3.43-3.93,5.83-7.78,7.35-11.74,.75-1.95,2.07-2.29,3.38-2.37,5.33-.31,11.62-.83,17.85-2.26Z"/><path class="cls-1" d="M125.16,39.77c11.09,.05,20.1-8.67,20.19-19.54C145.44,9.14,136.59,.07,125.62,0c-11.08-.07-20.2,8.86-20.21,19.77-.01,10.98,8.84,19.95,19.75,20Z"/></g></g></svg>
